<svg width="28" height="28" viewBox="0 0 28 28" fill="none" xmlns="http://www.w3.org/2000/svg">
<path d="M10.0001 13.6667C9.55805 13.6667 9.13413 13.8423 8.82157 14.1548C8.50901 14.4674 8.33341 14.8913 8.33341 15.3334C8.33341 15.7754 8.50901 16.1993 8.82157 16.5119C9.13413 16.8244 9.55805 17 10.0001 17C10.4421 17 10.866 16.8244 11.1786 16.5119C11.4912 16.1993 11.6667 15.7754 11.6667 15.3334C11.6667 14.8913 11.4912 14.4674 11.1786 14.1548C10.866 13.8423 10.4421 13.6667 10.0001 13.6667ZM18.0001 13.6667C17.5581 13.6667 17.1341 13.8423 16.8216 14.1548C16.509 14.4674 16.3334 14.8913 16.3334 15.3334C16.3334 15.7754 16.509 16.1993 16.8216 16.5119C17.1341 16.8244 17.5581 17 18.0001 17C18.4421 17 18.866 16.8244 19.1786 16.5119C19.4912 16.1993 19.6667 15.7754 19.6667 15.3334C19.6667 14.8913 19.4912 14.4674 19.1786 14.1548C18.866 13.8423 18.4421 13.6667 18.0001 13.6667ZM14.0001 0.666687C6.64008 0.666687 0.666748 6.64002 0.666748 14C0.666748 21.36 6.64008 27.3334 14.0001 27.3334C21.3601 27.3334 27.3334 21.36 27.3334 14C27.3334 6.64002 21.3601 0.666687 14.0001 0.666687ZM14.0001 24.6667C8.12008 24.6667 3.33341 19.88 3.33341 14C3.33341 13.6134 3.36008 13.2267 3.40008 12.8534C6.54675 11.4534 9.04008 8.88002 10.3467 5.69335C11.8711 7.85653 14.0062 9.51574 16.4788 10.4587C18.9514 11.4017 21.6491 11.5855 24.2267 10.9867C24.5067 11.9334 24.6667 12.9467 24.6667 14C24.6667 19.88 19.8801 24.6667 14.0001 24.6667Z" fill="black"/>
</svg>
